#!OML:ASF E:\Steps\Project 1\Capture day 1\Session 2\Subject.ASF
:FULLY-SPECIFIED
:DEGREES
646
root -1.35909 18.0122 21.4617 -153.256 0.785059 177.419
lowerback -21.7985 -2.13232 -7.78968
upperback 1.44042 -0.587448 -0.276005
thorax 14.085 -0.787176 3.96053
lowerneck -4.20006 -2.89395 1.08776
upperneck 25.5122 -1.86871 -0.766292
head 8.58463 -0.082305 -0.486371
rclavicle 1.17283e-014 6.55989e-015
rhumerus -40.54 -16.3529 -77.9533
rradius 39.0276
rwrist -3.00881
rhand -8.78472 -56.036
rfingers 7.12502
rthumb 17.1537 -85.2988
lclavicle 1.17283e-014 6.55989e-015
lhumerus -31.762 1.78317 79.3024
lradius 34.174
lwrist 0.361534
lhand -23.3173 -14.7945
lfingers 7.12502
lthumb 3.1367 15.1622
rfemur -36.6883 11.0649 14.3822
rtibia 23.5253
rfoot -23.834 -9.12117
rtoes -23.4802
lfemur -28.3391 -8.46728 -22.3532
ltibia 10.6552
lfoot -6.58306 -4.49099
ltoes -28.7369
647
root -1.36558 18.0094 21.4554 -153.289 0.738998 177.413
lowerback -21.6973 -2.13948 -7.76615
upperback 1.29742 -0.604172 -0.313744
thorax 13.8581 -0.77457 3.90075
lowerneck -4.12037 -2.93347 1.13608
upperneck 25.7479 -1.8754 -0.762325
head 8.65064 -0.0595297 -0.491144
rclavicle 2.08724e-015 2.50469e-014
rhumerus -40.8225 -16.1978 -78.1438
rradius 38.8061
rwrist -2.89517
rhand -8.90926 -56.122
rfingers 7.12502
rthumb 17.0338 -85.3952
lclavicle 2.08724e-015 2.50469e-014
lhumerus -31.8732 1.78761 79.1586
lradius 34.1676
lwrist 0.285098
lhand -23.4543 -14.2027
lfingers 7.12502
lthumb 3.00432 15.7558
rfemur -36.8455 11.0032 14.4303
rtibia 24.2104
rfoot -24.2422 -8.95508
rtoes -21.6577
lfemur -28.2546 -8.50436 -22.3729
ltibia 10.6155
lfoot -6.54787 -4.56058
ltoes -28.3001
648
root -1.37114 18.0094 21.4462 -153.361 0.643321 177.364
lowerback -21.9719 -2.18764 -7.81223
upperback 1.43603 -0.627929 -0.313793
thorax 14.1863 -0.806589 3.916
lowerneck -4.49299 -3.05493 1.11257
upperneck 26.1248 -2.01135 -0.812894
head 8.84878 -0.12026 -0.518964
rclavicle -4.17448e-015 -2.10712e-014
rhumerus -40.5359 -16.1771 -78.3539
rradius 38.3962
rwrist -2.84298
rhand -9.01184 -55.7077
rfingers 7.12502
rthumb 16.935 -84.9893
lclavicle -4.17448e-015 -2.10712e-014
lhumerus -31.4894 2.14059 78.9803
lradius 34.0534
lwrist -0.431692
lhand -23.2298 -13.966
lfingers 7.12502
lthumb 3.22113 15.9895
rfemur -36.809 10.9665 14.4377
rtibia 24.615
rfoot -24.4351 -8.90238
rtoes -21.278
lfemur -28.1061 -8.591 -22.4182
ltibia 10.542
lfoot -6.58848 -4.59051
ltoes -28.1526
649
root -1.37621 18.0115 21.4373 -153.458 0.512985 177.282
lowerback -21.7704 -2.07203 -7.93614
upperback 1.31902 -0.770274 -0.314634
thorax 13.9344 -0.992714 3.90956
lowerneck -4.39836 -2.99902 1.23322
upperneck 26.1396 -1.86256 -1.08892
head 8.83249 -0.0593128 -0.618792
rclavicle 3.27995e-015 -2.18663e-014
rhumerus -40.6556 -16.1293 -78.366
rradius 37.9543
rwrist -2.37598
rhand -8.99553 -55.2032
rfingers 7.12502
rthumb 16.9507 -84.4835
lclavicle 3.27995e-015 -2.18663e-014
lhumerus -31.5334 2.53258 78.7543
lradius 33.9225
lwrist -0.816334
lhand -23.0342 -14.561
lfingers 7.12502
lthumb 3.41011 15.3915
rfemur -36.6466 11.0672 14.394
rtibia 24.7868
rfoot -24.3106 -9.25294
rtoes -22.5807
lfemur -27.9512 -8.65823 -22.5173
ltibia 10.4942
lfoot -6.6139 -4.68373
ltoes -28.3101
650
root -1.38208 18.0128 21.4295 -153.515 0.393227 177.308
lowerback -21.8346 -2.08137 -7.81094
upperback 1.31674 -0.807163 -0.34179
thorax 13.9703 -1.0003 3.79381
lowerneck -4.38661 -2.97831 1.3424
upperneck 26.1975 -1.79988 -1.22345
head 8.84794 -0.0270001 -0.677158
rclavicle 3.67752e-015 2.78299e-015
rhumerus -40.6587 -16.3086 -78.4116
rradius 37.5704
rwrist -1.52335
rhand -9.13159 -55.033
rfingers 7.12502
rthumb 16.8198 -84.3245
lclavicle 3.67752e-015 2.78299e-015
lhumerus -31.3759 2.78582 78.5563
lradius 33.7681
lwrist -0.960077
lhand -23.419 -15.259
lfingers 7.12502
lthumb 3.03842 14.6991
rfemur -36.5227 11.1374 14.4788
rtibia 24.9327
rfoot -24.294 -9.2743
rtoes -22.1874
lfemur -27.8323 -8.51553 -22.5432
ltibia 10.4202
lfoot -6.57233 -4.93088
ltoes -28.2612
651
root -1.38871 18.0139 21.4215 -153.542 0.285958 177.391
lowerback -22.1143 -2.07145 -7.68376
upperback 1.39431 -0.795842 -0.328447
thorax 14.2209 -0.995394 3.73736
lowerneck -4.3466 -3.0373 1.35976
upperneck 26.1698 -1.88839 -1.21753
head 8.82934 -0.0668345 -0.685349
rclavicle -3.47873e-015 5.96354e-015
rhumerus -40.6091 -16.4583 -78.5203
rradius 37.3452
rwrist -1.14029
rhand -9.76377 -54.958
rfingers 7.12502
rthumb 16.2111 -84.3002
lclavicle -3.47873e-015 5.96354e-015
lhumerus -31.12 2.96799 78.4498
lradius 33.6376
lwrist -1.20902
lhand -23.9732 -15.2599
lfingers 7.12502
lthumb 2.5032 14.7052
rfemur -36.3605 11.0391 14.6384
rtibia 24.9342
rfoot -24.1845 -8.96923
rtoes -21.2095
lfemur -27.7529 -8.38505 -22.4884
ltibia 10.3426
lfoot -6.53121 -5.13221
ltoes -27.7802
652
root -1.39382 18.0132 21.4137 -153.557 0.117757 177.373
lowerback -21.9901 -2.12748 -7.75795
upperback 1.23753 -0.888197 -0.240239
thorax 13.9773 -1.03757 3.85211
lowerneck -4.31092 -3.18454 1.2824
upperneck 26.3573 -2.02513 -1.30874
head 8.88593 -0.132651 -0.713521
rclavicle 2.78299e-015 -7.55382e-015
rhumerus -40.9144 -16.3011 -78.5001
rradius 37.239
rwrist -1.22615
rhand -9.46777 -55.6981
rfingers 7.12502
rthumb 16.4961 -85.0168
lclavicle 2.78299e-015 -7.55382e-015
lhumerus -31.2215 3.29255 78.4007
lradius 33.5517
lwrist -1.37568
lhand -23.6208 -14.3004
lfingers 7.12502
lthumb 2.8436 15.6603
rfemur -36.0699 10.8049 14.7363
rtibia 24.5786
rfoot -23.8535 -8.72444
rtoes -21.1444
lfemur -27.7058 -8.44504 -22.5126
ltibia 10.3097
lfoot -6.53922 -5.24553
ltoes -28.0682
